<?xml version="1.0" encoding="UTF-8"?>
<svg width="900" height="150" version="1.1" viewBox="0 0 274.3 45.312" xmlns="http://www.w3.org/2000/svg" xmlns:cc="http://creativecommons.org/ns#" xmlns:dc="http://purl.org/dc/elements/1.1/" xmlns:rdf="http://www.w3.org/1999/02/22-rdf-syntax-ns#">
 <metadata>
  <rdf:RDF>
   <cc:Work rdf:about="">
    <dc:format>image/svg+xml</dc:format>
    <dc:type rdf:resource="http://purl.org/dc/dcmitype/StillImage"/>
    <dc:title/>
   </cc:Work>
  </rdf:RDF>
 </metadata>
 <g transform="translate(-.039566 -32.014)">
  <path fill="#ffffff" d="m20.946 75.321-2.9779-2.0048 0.01957-8.5559 0.01957-8.5559 2.9145-1.6361c1.603-0.89986 2.9448-1.6361 2.9819-1.6361 0.03817 0 0.06732 5.2802 0.06732 12.197 0 6.7082-0.0106 12.197-0.02354 12.197s-1.3636-0.90214-3.0014-2.0048zm-16.008-5.6195-4.8985-3.6228 0.0010906-10.979 0.0010906-10.979 6.4767-6.0407c3.5622-3.3224 6.5256-6.0525 6.5854-6.0669 0.05979-0.01445 2.5857 1.1283 5.613 2.5394l5.5043 2.5657 14.602 12.23v0.90681c0 0.49875-0.02596 0.90602-0.05772 0.90504-0.03174-8.73e-4 -3.2954-2.7745-7.2526-6.1633s-7.2351-6.1781-7.2843-6.1984c-0.04917-0.02027-3.2782 2.7585-7.1757 6.1751l-7.0863 6.212v11.069c0 6.088-0.029156 11.069-0.064797 11.069-0.035642 0-2.2691-1.6302-4.9633-3.6228zm19.726-4.9188v-8.5416h3.3606l0.05104 5.0211c0.02807 2.7616 0.05107 6.6053 0.0511 8.5416l6.6e-5 3.5205h-3.4628z" stroke-width=".076951"/>
  <text x="34.682419" y="50.433857" fill="#ffffff" font-family="sans-serif" stroke-width=".34734" style="line-height:1.25" xml:space="preserve"><tspan x="34.682419" y="50.433857" dy="4" font-size="14.111px">   <tspan font-family="sans-serif" font-weight="bold">Clarksdale Area</tspan></tspan><tspan x="34.682419" y="70.569717" font-family="sans-serif" font-size="16.933px" font-weight="bold">Fuller Center for Housing</tspan></text>
 </g>
</svg>
